<svg height="238" viewBox="0 0 240 238" width="240" xmlns="http://www.w3.org/2000/svg" xmlns:xlink="http://www.w3.org/1999/xlink"><defs><rect id="a" height="238" rx="6" width="240"/><mask id="b" fill="#fff" height="238" width="240" x="0" y="0"><use xlink:href="#a"/></mask><linearGradient id="c" x1="100%" x2="0%" y1="50%" y2="50%"><stop offset="0" stop-color="#eee" stop-opacity=".2"/><stop offset="1" stop-color="#ddd"/></linearGradient></defs><g fill="none" fill-rule="evenodd"><use fill="none" mask="url(#b)" stroke="#ddd" stroke-dasharray="5 5" stroke-width="4" xlink:href="#a"/><rect fill="#eee" height="170" rx="4" width="232" x="4" y="4"/><path d="m24 194h192c2.209139 0 4 1.790861 4 4v16c0 2.209139-1.790861 4-4 4h-192c-2.209139 0-4-1.790861-4-4v-16c0-2.209139 1.790861-4 4-4z" fill="url(#c)"/><path d="m55.8036134 21.0558143c-7.975941.6926489-13.8770428 7.726618-13.1864248 15.7030274.6965887 7.9754143 7.7301448 13.8828337 15.7060858 13.1852089 7.9769362-.692649 13.878038-7.7236324 13.1834395-15.706013-.6896229-7.9734239-7.7231789-13.8788529-15.7031005-13.1822233z" stroke="#d9d9d9" stroke-width="2" transform="translate(38.937746 43.937746)"/><path d="m21.7100386 18.4994084c-4.4921136 2.7761753-6.0494062 8.8212969-3.4522633 13.4128925 2.7699546 4.8890429 9.0011112 6.5398756 13.8239508 3.694296 4.7612631-2.8118689 6.3374259-8.9462247 3.5217853-13.6984419-2.8513947-4.8047661-9.1093668-6.3653732-13.8934728-3.4087466z" stroke="#d9d9d9" stroke-width="2" transform="translate(126 82)"/><g fill="#d9d9d9"><path d="m27.0366118 0c-1.0834666 0-2.1699682.06474335-3.2514115.19827651l-1.0976297 4.54720869c-1.1937354.2316598-2.3743195.56852754-3.539729 1.00048707l-3.2928888-3.33124765c-.877092.39655301-1.7582306.84368677-2.6080084 1.35252903-.8507894.50074935-1.6631365 1.04803297-2.4400761 1.62566505l1.3363767 4.49561633c-.9377905.81738477-1.8017312 1.69344327-2.58170579 2.62918697l-4.5109036-1.2382166c-1.15124653 1.6003747-2.10926979 3.3140502-2.87912797 5.1035969l3.40518087 3.2260397c-.40162116 1.1613338-.69803173 2.3540277-.91148781 3.5608842l-4.53518296 1.1906707c-.1912 1.9402772-.17197884 3.9038216.06069841 5.8612964l4.5564274 1.0834394c.23267725 1.1997752.56550687 2.382353.99140739 3.553803l-3.3303195 3.2877482c.39858623.8861746.84674284 1.7541401 1.35256293 2.6018733.5058201.8548146 1.05008252 1.6711878 1.63076398 2.4440615l4.49370572-1.3373548c.81335873.9387786 1.69854383 1.801686 2.62925283 2.5806294l-1.2362243 4.5158487c1.6044613 1.145148 3.3110983 2.1112401 5.0996782 2.8709629l3.2301671-3.4030723c1.1643979.4056575 2.344982.7071187 3.5629968.9144998l1.1876655 4.5391157c.8811386.0839641 1.7703704.1264519 2.6606137.1264519 1.0652572 0 2.1345608-.0617085 3.2008296-.1901836l1.0834666-4.5532784c1.1967704-.2306482 2.381401-.5675159 3.5457989-.9984638l3.3040168 3.3322593c.8770921-.3945298 1.7471026-.8467217 2.597892-1.3505058.8528127-.5037842 1.6601016-1.0490446 2.4390645-1.633758l-1.3363766-4.488535c.938802-.8153616 1.8027428-1.6964781 2.5817057-2.629187l4.5149502 1.2361933c1.1471999-1.6034095 2.1123047-3.3150618 2.8720465-5.1046084l-3.4051809-3.2300862c.3985862-1.1542525.7091598-2.3429.9175576-3.5558262l4.535183-1.1846009c.1891767-1.9453354.1729905-3.9058449-.0596868-5.8663545l-4.5493459-1.0874859c-.2387471-1.1937055-.5766349-2.3833646-1.0025354-3.5477333l3.3333544-3.2897714c-.4006095-.885163-.8528127-1.7581866-1.3586328-2.6089547-.4997502-.8487448-1.0460359-1.6610715-1.630764-2.440015l-4.4876358 1.3403897c-.815382-.9408018-1.6934857-1.8047209-2.6312762-2.58467592l1.2422942-4.51079055c-1.6064846-1.14818284-3.3181798-2.10921694-5.1118179-2.87905583l-3.2230856 3.409142c-1.161363-.4026227-2.3530751-.70813039-3.5609735-.91854627l-1.1907005-4.53911577c-.8639407-.08396404-1.7329396-.12645186-2.6029502-.12645186m0 2.02322967c.3368762 0 .6757757.00708131 1.0146751.02124392l.8224635 3.13398276.3297947 1.25743724 1.2807365.22255527c1.1047111.19220682 2.1972825.47444736 3.2443301.83660547l1.234201.42791307.8983365-.94889471 2.2235851-2.35301611c.790091.39250655 1.5589375.8254777 2.3045164 1.29790183l-.8558476 3.10970401-.3469926 1.25844888 1.003547.8345822c.843708.7010491 1.6499852 1.4931435 2.3965756 2.3530161l.8558476.9873361 1.2524106-.3732859 3.0966306-.9256275c.2468402.3692394.4815407.7435369.7030899 1.118846.2235725.3763207.4390519.7617459.6434032 1.1552641l-2.3004698 2.2700637-.9246391.9124766.4461333 1.2210191c.3925164 1.0783814.7020783 2.1719371.9185693 3.2513301l.2549333 1.2695766 1.2584804.3004496 3.1360846.7506182c.0556402.8790933.0637333 1.7632447.0273143 2.6453728l-3.1300148.8183964-1.2605036.3297865-.2215492 1.2847508c-.1871535 1.0824279-.4683894 2.1719371-.8366265 3.2391907l-.4248888 1.2311353.9448719.8962907 2.3550983 2.2336456c-.3874581.7840015-.8204401 1.5518171-1.2938878 2.2983889l-3.1158517-.8538029-1.2544339-.3439491-.8335915.9984639c-.7132063.8538029-1.5053206 1.6610715-2.3550983 2.400562l-.9843259.8538029.3712719 1.2503559.9236275 3.1005995c-.3702603.2478456-.7415323.4815287-1.1178624.7030723-.3783534.2245785-.7617651.4380292-1.1492233.6403522l-2.2842835-2.3054702-.9175577-.9256276-1.2220613.4521919c-1.0753735.3985762-2.1608634.7040839-3.2271322.9114649l-1.2827598.246834-.3024804 1.2705883-.7465904 3.1390408c-.5209947.0323717-1.046036.0485575-1.569054.0485575-.3550857 0-.7132063-.0070813-1.0723386-.0232671l-.8184169-3.1309479-.3308063-1.2645186-1.2888296-.2185088c-1.1168508-.1901836-2.1760381-.4612964-3.2372486-.8295242l-1.2321778-.4289246-.8993481.9458598-2.2326899 2.3530161c-.7799746-.3864368-1.5467978-.8183964-2.2943999-1.2938553l.8528126-3.1167854.3429461-1.2523791-.9964656-.8335706c-.8629291-.7212814-1.670218-1.5123642-2.3985989-2.3540278l-.8558476-.9843012-1.24937564.3722743-3.10270045.9225927c-.24380529-.3662046-.47951745-.7435369-.70915978-1.1289622-.21952592-.3682278-.43197036-.7496066-.63632167-1.1411015l2.30046978-2.2710753.92261585-.911465-.4430984-1.2200075c-.39352803-1.0834395-.69904337-2.1759835-.90744125-3.2472836l-.24886348-1.2796928-1.2685968-.3024728-3.14215442-.7475834c-.05462857-.8801049-.06474497-1.762233-.02731429-2.6413263l3.13304966-.8214313 1.2534222-.3287748.22559576-1.2776695c.20232804-1.1471712.48154073-2.2417385.83055659-3.2513301l.42590052-1.2331585-.94588357-.8962907-2.3510518-2.2275759c.39352803-.7910828.82549839-1.5599101 1.29489944-2.2983889l3.11281686.8548145 1.25645709.3449607.8346032-1.0014987c.6960084-.8355939 1.4891343-1.6428625 2.35611-2.3985388l.981291-.8548145-.371272-1.24732113-.9226158-3.1026227c.3753185-.24885725.750637-.48557512 1.1259555-.70711877.3601439-.21446235.7435555-.42791308 1.1472-.63630573l2.2761904 2.30243537.9175576.92866242 1.2250963-.45421507c1.0723386-.39756463 2.1558052-.70509554 3.2210624-.91146496l1.2766899-.24683402.3045037-1.26451855.7587301-3.1430873c.5412275-.03540652 1.0834667-.05361559 1.6236825-.05361559" transform="translate(126 82)"/><path d="m59.6523519 0-2.8384714 5.86149978c-.0879671 0-.1759341-.00102277-.2639011-.00102277-.8612587 0-1.7266089.03886529-2.6021879.11352756-.3355022.02863759-.6628214.07057119-.9901406.10943649l-3.4767439-5.51478046c-2.8967751.57786553-5.6605767 1.48915436-8.2453757 2.69806952l.47359 6.50891373c-1.1261827.63616345-2.2114505 1.34289815-3.2343231 2.11713565l-5.7659326-3.0314928c-2.1807643 1.9176954-4.1221765 4.0880151-5.7802529 6.4669801l3.6618838 5.3940935c-.6556613 1.1066381-1.2458588 2.254187-1.7542265 3.441624l-6.5064924.2556927c-.9216082 2.7123883-1.5189657 5.556714-1.7675238 8.4951347l5.8610598 2.8361436c-.0061372.9501541.024549 1.9054221.1074017 2.8678495.0286404.3313777.0705782.6555961.1145617.9879966l-5.5163518 3.4794665c.5799688 2.892396 1.4872567 5.6549 2.6983379 8.239442l6.5064924-.4714974c.6382724 1.1260708 1.3440545 2.205094 2.1153004 3.2340015l-3.0297485 5.7602455c1.9137946 2.182593 4.0914903 4.123812 6.4655775 5.7837691l5.3946299-3.6584513c1.1087939.6576417 2.2585026 1.2457349 3.4460577 1.7530292l.2557181 6.5048227c2.7126581.9184482 5.5541981 1.5208603 8.4888195 1.7683708l2.8446086-5.860477c.071601.0010228.1421793.0010228.2137803.0010228.8766018 0 1.7634323-.0327287 2.6533315-.1094365.3303878-.0265921.657707-.0726168.9819576-.1145504l3.4798125 5.5209171c2.8998437-.579911 5.6605768-1.4871088 8.2463986-2.6970467l-.4705213-6.5099365c1.1220912-.6402546 2.2032675-1.3459665 3.2353459-2.1171357l5.7618412 3.0304701c2.1766728-1.9176954 4.1180849-4.0869924 5.77923-6.4649346l-3.6547237-5.3930708c.6495241-1.1086836 1.23563-2.258278 1.7511578-3.4487833l6.5034238-.2536472c.9216082-2.7113655 1.5210115-5.5587596 1.7665009-8.4930892l-5.8569683-2.8371663c.0061372-.9491314-.0276176-1.9054221-.1135388-2.865804-.024549-.3334233-.0685325-.6586644-.1063788-.9890194l5.5112374-3.4835575c-.5728086-2.892396-1.4841881-5.6549001-2.6962921-8.2373965l-6.5085381.4725201c-.6352039-1.1281162-1.3450775-2.2102078-2.1153005-3.2360469l3.0287257-5.7622911c-1.9137946-2.17645633-4.0863759-4.11869819-6.4625089-5.78274638l-5.3966757 3.65845138c-1.1057252-.65252783-2.2544111-1.23755276-3.4460577-1.74996096l-.2557181-6.50379987c-2.7116352-.92049378-5.562381-1.52188304-8.491888-1.77348467m1.2141497 2.18668409c1.7961642.22705513 3.5667566.59729818 5.2902969 1.10356976l.1994602 5.06782959.0501207 1.28869128 1.1855093.50933988c1.0954965.4714974 2.1766728 1.0207253 3.2148885 1.6323423l1.115954.6576417 1.0709475-.7261674 4.2050292-2.84943956c1.4371359 1.09641036 2.7842591 2.30225716 4.0260264 3.60219896l-2.359767 4.4889413-.602472 1.1455033.7784061 1.0350442c.7211251.9583362 1.3829237 1.9729249 1.9680068 3.0110374l.6362267 1.1311845 1.2949567-.0940949 5.0744708-.3692203c.6914619 1.6548433 1.2530189 3.3710528 1.6764881 5.1312414l-4.2981105 2.7154566-1.0852678.6862793.1452479 1.2743725.0317091.2710342c.0255718.2106908.0511436.4203589.0695553.6678694.0756926.8540137.1114931 1.7530293.1053559 2.6725003l-.0092059 1.2907368 1.1630061.5635467 4.5661032 2.2112306c-.225032 1.7939401-.5932661 3.5653792-1.1006109 5.2907937l-5.0662878.1973947-1.2857509.0501158-.5114362 1.1813003c-.47359 1.0933421-1.0259412 2.178502-1.6396648 3.2268421l-.6515698 1.1137975.7241938 1.0677727 2.8476772 4.2025655c-1.091405 1.4318792-2.2963489 2.7809139-3.6015343 4.0276716l-4.4883648-2.3595323-1.1425487-.6013893-1.0341241.7732148c-.9451343.7057119-1.9628925 1.3725585-3.0246342 1.9780388l-1.1179997.6392318.0930814 1.2846002.3661883 5.074989c-1.652962.6893475-3.3724108 1.2508487-5.1389117 1.6783669l-2.7126581-4.3048425-.6965762-1.1035697-1.2939338.1656888-.1667282.0204555c-.2383293.0317058-.4776815.0634117-.730331.0838672-.7906805.0685256-1.6253445.102277-2.4784203.102277h-.200483l-1.2898423-.0081821-.5636028 1.1598221-2.2186106 4.5697402c-1.7879812-.2260323-3.5575508-.5942298-5.2872283-1.1015242l-.1994601-5.0688524-.0511437-1.2907368-1.1885779-.5083171c-1.0873135-.4653607-2.1664441-1.0145887-3.2056826-1.6323423l-1.1179997-.6627555-1.0750391.7282129-4.2029834 2.8525079c-1.4422503-1.0984559-2.7903963-2.3043028-4.029095-3.6032218l2.3607899-4.4889412.6024719-1.1444806-.7753374-1.0340214c-.7190794-.959359-1.3829237-1.9739477-1.9731212-3.017174l-.6372496-1.1250479-1.2908652.0940949-5.0714021.3671747c-.6873704-1.6456383-1.2489275-3.3638933-1.6775111-5.1322641l4.3001563-2.7123884 1.1098167-.700598-.1728654-1.298919c-.0409149-.3017174-.0787612-.5972982-.1053559-.8939017-.0726239-.8540137-.1063787-1.7295055-.0992186-2.6786369l.0071601-1.2917596-1.1619833-.5625239-4.5681488-2.2112306c.2270777-1.799054.5942889-3.5694703 1.099588-5.2918165l5.0703793-.1994403 1.291888-.0501157.5093906-1.1884598c.457224-1.0698183 1.0065066-2.1478188 1.6335275-3.2053638l.6617985-1.1168658-.7293081-1.0739094-2.8538145-4.204611c1.0893593-1.4318792 2.2943032-2.7798912 3.6005114-4.0266489l4.4934792 2.3605552 1.1497088.6054803 1.0361699-.7834425c.9297912-.7036663 1.9414121-1.3664218 3.0072454-1.9688339l1.1272055-.6371862-.0941042-1.2917596-.3702799-5.07192068c1.6550078-.69139309 3.3744566-1.25289429 5.136866-1.67938974l2.7106123 4.29972868.690439 1.09436482 1.2837051-.15341563.1687739-.02045542c.249581-.03068312.5001847-.06238902.7518114-.08386721.8142065-.06852565 1.6304589-.1053454 2.4282995-.1053454l.2454894.00102277 1.2949566.01227325.5636028-1.164936z" transform="translate(39.937746 43.937746)"/></g></g></svg>