<?xml version="1.0" encoding="UTF-8" standalone="no"?><!DOCTYPE svg PUBLIC "-//W3C//DTD SVG 1.1//EN" "http://www.w3.org/Graphics/SVG/1.1/DTD/svg11.dtd"><svg width="100%" height="100%" viewBox="0 0 81 71" version="1.1" xmlns="http://www.w3.org/2000/svg" xmlnsXlink="http://www.w3.org/1999/xlink" xml:space="preserve" xmlnsSerif="http://www.serif.com/" style="fill-rule:evenodd;clip-rule:evenodd;stroke-linejoin:round;stroke-miterlimit:2;"><g id="Page-1"><g id="Quote-2"><g id="_-" ><path d="M49.75,56c5.167,-1.833 9,-4.667 11.5,-8.5c2.5,-3.833 3.75,-8.417 3.75,-13.75l-15.25,0l0,-33.75l31.25,0l0,33.75c0,4.833 -0.833,9.208 -2.5,13.125c-1.667,3.917 -3.917,7.417 -6.75,10.5c-2.833,3.083 -6.125,5.75 -9.875,8c-3.75,2.25 -7.792,3.958 -12.125,5.125l0,-14.5Zm-49.75,0c5.167,-1.833 9,-4.667 11.5,-8.5c2.5,-3.833 3.75,-8.417 3.75,-13.75l-15.25,0l0,-33.75l31.25,0l0,33.75c-0,4.833 -0.833,9.208 -2.5,13.125c-1.667,3.917 -3.917,7.417 -6.75,10.5c-2.833,3.083 -6.125,5.75 -9.875,8c-3.75,2.25 -7.792,3.958 -12.125,5.125l0,-14.5Z" style="fill:#d8d8d8;fill-rule:nonzero;"/></g></g></g></svg>