<?xml version="1.0" encoding="UTF-8" standalone="no"?>
<!DOCTYPE svg PUBLIC "-//W3C//DTD SVG 1.1//EN" "http://www.w3.org/Graphics/SVG/1.1/DTD/svg11.dtd">
<svg width="100%" height="100%" viewBox="0 0 46 44" version="1.1" xmlns="http://www.w3.org/2000/svg" xmlnsXlink="http://www.w3.org/1999/xlink" xmlSpace="preserve" xmlnsSerif="http://www.serif.com/" style="fill-rule:evenodd;clip-rule:evenodd;stroke-linejoin:round;stroke-miterlimit:2;">
    <g transform="matrix(1,0,0,1,-333.422,-187.373)">
        <g transform="matrix(170,0,0,170,326.947,205.469)">
            <path d="M0.202,0.102C0.225,0.098 0.24,0.082 0.25,0.055C0.254,0.04 0.257,0.026 0.257,0.012C0.257,0.01 0.257,0.008 0.257,0.006C0.256,0.004 0.256,0.002 0.255,-0L0.202,-0L0.202,-0.106L0.307,-0.106L0.307,-0.008C0.307,0.03 0.299,0.064 0.284,0.093C0.269,0.123 0.242,0.141 0.202,0.148L0.202,0.102ZM0.038,0.102C0.058,0.098 0.072,0.086 0.082,0.067C0.091,0.047 0.094,0.025 0.091,-0L0.038,-0L0.038,-0.106L0.142,-0.106L0.142,-0.008C0.142,0.03 0.135,0.063 0.12,0.093C0.106,0.122 0.078,0.141 0.038,0.148L0.038,0.102Z" style="fill:rgb(216,216,216);fill-rule:nonzero;"/>
        </g>
    </g>
</svg>
