<?xml version="1.0" encoding="utf-8"?>
<!-- Generator: Adobe Illustrator 26.3.1, SVG Export Plug-In . SVG Version: 6.00 Build 0)  -->
<svg version="1.1" id="Ebene_1" xmlns="http://www.w3.org/2000/svg" xmlns:xlink="http://www.w3.org/1999/xlink" x="0px" y="0px"
	 viewBox="0 0 720 720" style="enable-background:new 0 0 720 720;" xml:space="preserve">
<style type="text/css">
	.st0{fill:#FAE501;}
	.st1{fill:#4FB5E1;}
	.st2{fill:#F05751;}
	.st3{fill:#0681B6;}
	.st4{fill:#CD4739;}
</style>
<path d="M500,720H220C98.5,720,0,621.5,0,500V220C0,98.5,98.5,0,220,0h280c121.5,0,220,98.5,220,220v280
	C720,621.5,621.5,720,500,720z"/>
<g id="Ebene_2">
</g>
<g id="Ebene_3">
</g>
<g>
	<path class="st0" d="M286.7,433.8c-19.9-18.7-31.6-44.5-31.6-73.8s11.7-55,30.4-73.8c16.4-16.4,16.4-42.2,0-58.6
		c-16.4-16.4-42.2-16.4-58.6,0c-32.8,34-53.9,80.8-53.9,132.3s21.1,98.4,55,132.3c16.4,16.4,42.2,16.4,58.6,0
		C301.9,475.9,301.9,450.2,286.7,433.8z"/>
	<path class="st1" d="M286.7,286.2c18.7-19.9,44.5-31.6,73.8-31.6s55,11.7,73.8,30.4c16.4,16.4,42.2,16.4,58.6,0
		c16.4-16.4,16.4-42.2,0-58.6c-34-32.8-80.8-53.9-132.3-53.9s-98.4,21.1-132.3,55c-16.4,16.4-16.4,42.2,0,58.6
		C244.6,301.4,270.3,301.4,286.7,286.2z"/>
	<path class="st2" d="M434.3,433.8c-18.7,19.9-44.5,31.6-73.8,31.6s-55-11.7-73.8-30.4c-16.4-16.4-42.2-16.4-58.6,0
		c-16.4,16.4-16.4,42.2,0,58.6c34,32.8,80.8,53.9,132.3,53.9s98.4-21.1,132.3-55c16.4-16.4,16.4-42.2,0-58.6
		C476.4,418.6,450.7,418.6,434.3,433.8z"/>
	<ellipse class="st3" cx="257.4" cy="256.9" rx="41" ry="41"/>
	
		<ellipse transform="matrix(7.088903e-02 -0.9975 0.9975 7.088903e-02 -222.7074 687.0184)" class="st4" cx="257.4" cy="463.1" rx="41" ry="41"/>
</g>
</svg>
